<?xml version="1.0" encoding="utf-8"?>
<!-- Generator: Adobe Illustrator 19.1.0, SVG Export Plug-In . SVG Version: 6.00 Build 0)  -->
<svg version="1.1" id="Layer_1" xmlns="http://www.w3.org/2000/svg" xmlns:xlink="http://www.w3.org/1999/xlink" x="0px" y="0px"
	 viewBox="0 0 200 55" style="enable-background:new 0 0 200 55;" xml:space="preserve">
<style type="text/css">
	.st0{fill:#FFFFFF;}
</style>
<g>
	<path class="st0" d="M37.6,20.8h-9.2v-0.6c2.9-0.1,3-0.8,3-3.2V1.3h-1.7c-3.5,0-4.3,0.6-5,4h-0.8L24.1,0h17.7l0.2,5.3h-0.8
		c-0.7-3.5-1.5-4-5-4h-1.7v16.1c0,2.1,0.4,2.7,3,2.8V20.8z"/>
	<path class="st0" d="M43.2,20.2c2.6-0.1,2.8-0.8,2.8-3.2V3.4c0-2.3-0.4-2.6-2.8-2.8V0h8.7v0.6c-2.4,0.2-2.8,0.6-2.8,2.8v6.1h9.5
		V3.4c0-2.3-0.4-2.6-2.8-2.8V0h8.7v0.6c-2.4,0.2-2.8,0.6-2.8,2.8v14c0,2.1,0.3,2.7,2.8,2.8v0.6h-8.7v-0.6c2.6-0.1,2.8-0.8,2.8-3.2
		v-6.1h-9.5v6.5c0,2.1,0.3,2.7,2.8,2.8v0.6h-8.7V20.2z"/>
	<path class="st0" d="M82.8,20.8h-17v-0.6c2-0.1,2.7-0.4,2.7-2.8v-14c0-2.5-0.8-2.7-2.7-2.8V0h16.7l0.1,4.5h-0.8
		c-0.5-2.8-1.3-3.3-4.8-3.3h-4.2c-0.7,0-1,0-1,1.1v7h4.8c2.8,0,3.1-0.8,3.5-3h0.7v7.3H80c-0.4-2.5-0.8-3-3.5-3l-4.8-0.1v7.8
		c0,1.3,0,1.3,4.7,1.3c3.9,0,5.5-0.9,6.9-4.1h0.9L82.8,20.8z"/>
	<path class="st0" d="M119.6,0.6c-2,0.2-2.7,0.3-2.7,2.8v14c0,2.4,0.7,2.7,2.7,2.8v0.6h-8.8v-0.6c2.5-0.1,2.9-0.6,2.9-3.2V2.9h-0.1
		l-8,17.9h-0.4L97.4,3.6h-0.1v12.6c0,3.2,0.7,3.9,3,4v0.6h-7.4v-0.6c2.4-0.2,3.1-0.6,3.1-4V3.4c0-2.5-0.7-2.7-3-2.8V0h6.2l7.3,15.9
		l7-15.9h6.3V0.6z"/>
	<path class="st0" d="M121,20.2c2.7-0.1,3.1-0.6,3.1-2.8v-14c0-2.3-0.4-2.7-3.1-2.8V0h9.3v0.6c-2.3,0.1-3.1,0.3-3.1,2.8v14
		c0,2.5,0.8,2.8,3.1,2.8v0.6H121V20.2z"/>
	<path class="st0" d="M153.3,0.6c-2,0.2-3,0.3-3,4v16.5h-0.5L135.9,3.9h-0.1v12.3c0,3.2,0.7,3.9,3,4v0.6h-7.4v-0.6
		c2.4-0.2,3.1-0.6,3.1-4V2.3c-1.3-1.6-1.8-1.7-3.1-1.7V0h5.4l12,15.1h0.1V4.6c0-3.6-0.9-3.9-3-4V0h7.4V0.6z"/>
	<path class="st0" d="M154.4,20.2c2.4-0.1,2.8-0.6,2.8-2.8v-14c0-2.3-0.3-2.6-2.8-2.8V0h8.5c7.5,0,12.6,3.4,12.6,10.5
		c0,4.2-2.5,10.3-12.1,10.3h-8.9V20.2z M160.4,18.4c0,1.1,0.4,1.3,1.9,1.3c2,0,9.8,0,9.8-9.2c0-2.6-0.8-5.2-2.9-7.1
		c-1.5-1.4-3.3-2.2-7.2-2.2c-1.5,0-1.5,0.6-1.5,1.2V18.4z"/>
	<path class="st0" d="M21.7,54.5h-8v-0.6c1.2,0,2.2,0,2.2-1.2c0-0.5-0.4-1.5-0.6-2l-1.3-3H5.8l-1.4,3.7c-0.2,0.4-0.3,0.8-0.3,1.2
		c0,1.3,1.5,1.3,2.1,1.3v0.6H0v-0.6c0.5,0,1-0.1,1.6-0.7c0.7-0.8,1.7-3.1,2.3-4.5l6.5-15.4h0.6l7.8,17.9c1,2.3,1.4,2.6,2.8,2.7V54.5
		z M13.6,46.4l-3.6-8.7l-3.6,8.7H13.6z"/>
	<path class="st0" d="M36.3,40h-0.8c-0.5-2.6-2.5-5.4-5.9-5.4c-1.6,0-3.2,1-3.2,2.9c0,4.7,10.5,5.3,10.5,11.8c0,2.7-2.1,5.7-6.6,5.7
		c-2.4,0-3.9-1.1-4.9-1.1c-0.7,0-1,0.5-1,1h-0.7l-0.9-6.7h0.7c0.6,1.5,2.2,5.6,6.4,5.6c2.5,0,3.8-1.8,3.8-3.5c0-1.8-0.5-2.9-5.1-5.6
		c-2.9-1.7-4.9-3.1-4.9-6.2c0-3.6,2.9-5.3,5.7-5.3c1.9,0,3.6,1.1,4.4,1.1c0.9,0,1-0.7,1.1-1.1h0.7L36.3,40z"/>
	<path class="st0" d="M52.6,40h-0.8c-0.5-2.6-2.5-5.4-5.9-5.4c-1.6,0-3.2,1-3.2,2.9c0,4.7,10.5,5.3,10.5,11.8c0,2.7-2.1,5.7-6.6,5.7
		c-2.4,0-3.9-1.1-4.9-1.1c-0.7,0-1,0.5-1,1h-0.7l-0.9-6.7h0.7c0.6,1.5,2.2,5.6,6.4,5.6c2.5,0,3.8-1.8,3.8-3.5c0-1.8-0.5-2.9-5.1-5.6
		c-2.9-1.7-4.9-3.1-4.9-6.2c0-3.6,2.9-5.3,5.7-5.3c1.9,0,3.6,1.1,4.4,1.1c0.9,0,1-0.7,1.1-1.1H52L52.6,40z"/>
	<path class="st0" d="M55.3,44.1c0-7.2,5.1-10.9,10.3-10.9c5.2,0,10.3,3.6,10.3,10.9c0,6.7-4.6,10.8-10.3,10.8
		C59.9,55,55.3,50.8,55.3,44.1z M72.3,44.1c0-7.2-3.5-9.7-6.7-9.7c-3.2,0-6.7,2.5-6.7,9.7c0,6.9,3.2,9.7,6.7,9.7
		C69.1,53.8,72.3,51,72.3,44.1z"/>
	<path class="st0" d="M95.3,40.3c-0.8-3.3-3.1-5.8-6.9-5.8c-1.6,0-3.4,0.6-4.7,1.9c-1.2,1.2-2.6,3.2-2.6,7.7c0,6.7,3.7,9.4,7.7,9.4
		c3.9,0,6.1-2.2,7.1-3.2l0.6,0.6c0,0.1-2.7,4-8.5,4c-5.1,0-10.5-3-10.5-10.9c0-7,5.3-10.9,10.7-10.9c2.8,0,4.8,1,5.5,1
		c0.2,0,1.2,0,1.4-1h0.7l0.3,7.1H95.3z"/>
	<path class="st0" d="M97.5,53.9c2.7-0.1,3.1-0.6,3.1-2.8v-14c0-2.3-0.4-2.7-3.1-2.8v-0.6h9.3v0.6c-2.3,0.1-3.1,0.3-3.1,2.8v14
		c0,2.5,0.8,2.8,3.1,2.8v0.6h-9.3V53.9z"/>
	<path class="st0" d="M129.7,54.5h-8v-0.6c1.2,0,2.2,0,2.2-1.2c0-0.5-0.4-1.5-0.6-2l-1.3-3h-8.2l-1.4,3.7c-0.2,0.4-0.3,0.8-0.3,1.2
		c0,1.3,1.5,1.3,2.1,1.3v0.6H108v-0.6c0.5,0,1-0.1,1.6-0.7c0.7-0.8,1.7-3.1,2.3-4.5l6.5-15.4h0.6l7.8,17.9c1,2.3,1.4,2.6,2.8,2.7
		V54.5z M121.6,46.4l-3.6-8.7l-3.6,8.7H121.6z"/>
	<path class="st0" d="M142.1,54.5h-9.2v-0.6c2.9-0.1,3-0.8,3-3.2V35h-1.7c-3.5,0-4.3,0.6-5,4h-0.8l0.2-5.3h17.7l0.2,5.3h-0.8
		c-0.7-3.5-1.5-4-5-4H139v16.1c0,2.1,0.4,2.7,3,2.8V54.5z"/>
	<path class="st0" d="M147.6,53.9c2.7-0.1,3.1-0.6,3.1-2.8v-14c0-2.3-0.4-2.7-3.1-2.8v-0.6h9.3v0.6c-2.3,0.1-3.1,0.3-3.1,2.8v14
		c0,2.5,0.8,2.8,3.1,2.8v0.6h-9.3V53.9z"/>
	<path class="st0" d="M157.2,44.1c0-7.2,5.1-10.9,10.3-10.9c5.2,0,10.3,3.6,10.3,10.9c0,6.7-4.6,10.8-10.3,10.8
		C161.8,55,157.2,50.8,157.2,44.1z M174.2,44.1c0-7.2-3.5-9.7-6.7-9.7c-3.2,0-6.7,2.5-6.7,9.7c0,6.9,3.2,9.7,6.7,9.7
		C171,53.8,174.2,51,174.2,44.1z"/>
	<path class="st0" d="M200,34.3c-2,0.2-3,0.3-3,4v16.5h-0.5l-13.8-17.2h-0.1v12.3c0,3.2,0.7,3.9,3,4v0.6h-7.4v-0.6
		c2.4-0.2,3.1-0.6,3.1-4V36c-1.3-1.6-1.8-1.7-3.1-1.7v-0.6h5.4l12,15.1h0.1V38.3c0-3.6-0.9-3.9-3-4v-0.6h7.4V34.3z"/>
</g>
</svg>
