<?xml version="1.0" encoding="utf-8"?>
<!-- Generator: Adobe Illustrator 19.2.1, SVG Export Plug-In . SVG Version: 6.00 Build 0)  -->
<svg version="1.1" id="Layer_1" xmlns="http://www.w3.org/2000/svg" xmlns:xlink="http://www.w3.org/1999/xlink" x="0px" y="0px"
	 viewBox="0 0 300 74.9" style="enable-background:new 0 0 300 74.9;" xml:space="preserve">
<style type="text/css">
	.st0{fill:#A29064;}
</style>
<g>
	<path class="st0" d="M65,73.9v-3.2c9.2-0.9,9.7-1.5,9.5-13.5l-0.3-46.4h-0.5L46,73.1h-2.3L18.3,12.4h-0.2l-1.7,32.4
		c-0.5,9.3-0.5,14.3-0.3,18.9c0.2,5.5,3,6.3,10.5,7v3.2H0v-3.2c6.6-0.8,8.9-2,9.7-6.8c0.6-4,1.3-9,2.2-20.8l1.6-23.6
		c1-14.8,0.5-15.2-9.9-16.3V0h18.6l25.9,56.8L74.3,0h19.3v3.2C83.7,4.1,82.9,4.3,83.2,16l1.1,41.2c0.3,12,0.7,12.6,10.6,13.5v3.2H65
		z"/>
	<path class="st0" d="M102.7,73.9v-3.2c9.3-0.7,10.2-1.4,10.2-11V14.2c0-9.7-0.9-10.3-10.2-11V0h30.1v3.2c-9.3,0.7-10.2,1.4-10.2,11
		v45.5c0,9.8,0.9,10.3,10.2,11v3.2H102.7z"/>
	<path class="st0" d="M218.8,3.2c-6.4,0.3-9.1,1.8-9.5,6.8c-0.5,3.4-0.7,8.5-0.7,19.1v45.8h-3.5l-48.4-59.6h-0.2v28.5
		c0,10.5,0.3,15.9,0.7,19.2c0.6,5.8,3.2,7.2,10.9,7.6v3.2h-26.9v-3.2c6.6-0.3,9.4-1.8,10-7.4c0.3-3.5,0.7-9,0.7-19.4v-25
		c0-8.3-0.2-8.8-2.3-11.5c-2.3-2.8-4.8-3.8-10.1-4.2V0h16.8l47.4,57.1h0.3v-28c0-10.5-0.5-15.7-0.8-18.9c-0.6-5.1-3.3-6.6-11.1-7V0
		h26.8V3.2z"/>
	<path class="st0" d="M258.3,0c14.4,0,25.1,3,32.2,9.7c5.6,5.5,9.5,13.8,9.5,24.4c0,13.6-5.2,23.8-14,30.4
		c-8.5,6.6-19.8,9.4-33.8,9.4h-26.9v-3.1c9.8-0.7,10.7-1.4,10.7-11V14.2c0-9.8-0.9-10.2-9.7-10.9V0H258.3z M245.8,59
		c0,8.6,3.8,10.8,12.1,10.8c21.3,0,31-15.9,31-34.1c0-11.7-4.3-21.8-13.4-27.2c-5.1-3.3-11.7-4.7-19.3-4.7c-4.8,0-7.7,0.6-8.9,1.4
		c-1.1,0.8-1.5,2-1.5,6.5V59z"/>
</g>
</svg>
