<svg xmlns="http://www.w3.org/2000/svg" width="255" height="41" fill="none"><path fill="#fff" d="M4.236 25.176c-1.203 0-2.17-.396-2.904-1.188C.613 23.18.254 22.125.254 20.82v-11c0-.147.073-.22.22-.22h1.672c.147 0 .22.073.22.22v11.22c0 .69.169 1.247.506 1.672a1.69 1.69 0 0 0 1.364.638c.572 0 1.027-.213 1.364-.638.352-.425.528-.983.528-1.672V9.82c0-.147.073-.22.22-.22H8.02c.147 0 .22.073.22.22v11c0 1.305-.367 2.361-1.1 3.168-.733.792-1.701 1.188-2.904 1.188zm10.858-11.528c.924 0 1.628.315 2.112.946.499.616.748 1.496.748 2.64v7.546c0 .147-.073.22-.22.22h-1.672c-.146 0-.22-.073-.22-.22v-7.37c0-.616-.132-1.093-.396-1.43-.264-.337-.63-.506-1.1-.506-.513 0-.91.183-1.188.55-.278.352-.418.843-.418 1.474v7.282c0 .147-.073.22-.22.22h-1.672c-.146 0-.22-.073-.22-.22V14.022c0-.147.074-.22.22-.22h1.672c.147 0 .22.073.22.22v.572c0 .03.015.051.044.066.03 0 .059-.015.088-.044.528-.645 1.269-.968 2.222-.968zm6.218-1.496c-.396 0-.718-.132-.968-.396-.249-.264-.374-.601-.374-1.012 0-.41.125-.74.374-.99.25-.264.572-.396.968-.396s.712.132.946.396c.25.25.374.58.374.99 0 .425-.124.77-.374 1.034-.234.25-.55.374-.946.374zM20.476 25c-.146 0-.22-.073-.22-.22V14.022c0-.147.074-.22.22-.22h1.672c.147 0 .22.073.22.22V24.78c0 .147-.073.22-.22.22h-1.672zm8.667-9.878c0 .147-.073.22-.22.22h-1.54c-.059 0-.088.03-.088.088v6.182c0 .587.103.997.308 1.232.205.22.528.323.968.308h.198c.147 0 .22.073.22.22v1.408c0 .147-.073.22-.22.22h-.682c-.939 0-1.65-.183-2.134-.55-.47-.367-.704-1.063-.704-2.09v-6.93c0-.059-.03-.088-.088-.088h-.858c-.147 0-.22-.073-.22-.22v-1.1c0-.147.073-.22.22-.22h.858c.059 0 .088-.03.088-.088v-2.486c0-.147.073-.22.22-.22h1.606c.147 0 .22.073.22.22v2.486c0 .059.03.088.088.088h1.54c.147 0 .22.073.22.22v1.1zm2.869-2.97c-.396 0-.72-.132-.968-.396-.25-.264-.374-.601-.374-1.012 0-.41.124-.74.374-.99.249-.264.572-.396.968-.396s.71.132.946.396c.249.25.374.58.374.99 0 .425-.125.77-.374 1.034-.235.25-.55.374-.946.374zM31.176 25c-.147 0-.22-.073-.22-.22V14.022c0-.147.073-.22.22-.22h1.672c.146 0 .22.073.22.22V24.78c0 .147-.074.22-.22.22h-1.672zm8.754-11.352c.924 0 1.628.315 2.112.946.499.616.748 1.496.748 2.64v7.546c0 .147-.073.22-.22.22h-1.672c-.147 0-.22-.073-.22-.22v-7.37c0-.616-.132-1.093-.396-1.43-.264-.337-.63-.506-1.1-.506-.513 0-.91.183-1.188.55-.278.352-.418.843-.418 1.474v7.282c0 .147-.073.22-.22.22h-1.672c-.146 0-.22-.073-.22-.22V14.022c0-.147.074-.22.22-.22h1.672c.147 0 .22.073.22.22v.572c0 .03.015.051.044.066.03 0 .059-.015.088-.044.528-.645 1.269-.968 2.222-.968zm10.09.374c0-.147.074-.22.22-.22h1.672c.147 0 .22.073.22.22V24.67c0 1.54-.352 2.728-1.056 3.564-.704.85-1.914 1.276-3.63 1.276l-.594-.022c-.146-.015-.22-.095-.22-.242v-1.408c0-.147.081-.22.242-.22 1.203.044 2.024-.198 2.464-.726.455-.513.682-1.32.682-2.42v-.462c0-.03-.014-.044-.044-.044-.014-.015-.036-.007-.066.022-.498.675-1.21 1.012-2.134 1.012-.968 0-1.716-.308-2.244-.924-.513-.63-.77-1.481-.77-2.552v-4.4c0-1.085.264-1.936.792-2.552.528-.63 1.269-.946 2.222-.946.954 0 1.665.337 2.134 1.012.03.03.052.037.066.022.03-.015.044-.037.044-.066v-.572zm-1.562 9.152c.47 0 .844-.161 1.122-.484.294-.337.44-.77.44-1.298v-4.136c0-.528-.146-.96-.44-1.298-.278-.337-.652-.506-1.122-.506-.469 0-.85.169-1.144.506-.293.337-.44.77-.44 1.298v4.136c0 .528.147.96.44 1.298.294.323.675.484 1.144.484zM63.023 9.578c1.13 0 2.039.41 2.728 1.232.704.807 1.056 1.87 1.056 3.19 0 1.29-.337 2.332-1.012 3.124-.674.792-1.562 1.188-2.662 1.188h-2.068c-.058 0-.088.03-.088.088v6.38c0 .147-.073.22-.22.22h-1.672c-.146 0-.22-.073-.22-.22V9.798c0-.147.074-.22.22-.22h3.938zm-.33 7.04c.602 0 1.086-.227 1.452-.682.367-.47.55-1.1.55-1.892 0-.807-.183-1.445-.55-1.914-.366-.484-.85-.726-1.452-.726h-1.628c-.058 0-.088.03-.088.088v5.038c0 .059.03.088.088.088h1.628zm13.094 3.432c0 .147-.073.22-.22.22h-4.972c-.058 0-.088.03-.088.088v1.188c0 .528.147.96.44 1.298.293.337.675.506 1.144.506.41 0 .756-.125 1.034-.374.279-.25.455-.572.528-.968.044-.117.125-.176.242-.176l1.628.088c.074 0 .125.022.154.066.044.044.059.095.044.154-.103.953-.47 1.701-1.1 2.244-.616.528-1.46.792-2.53.792-1.13 0-2.031-.315-2.706-.946-.66-.63-.99-1.474-.99-2.53v-4.576c0-1.041.33-1.885.99-2.53.675-.645 1.577-.968 2.706-.968 1.144 0 2.046.323 2.706.968.66.645.99 1.489.99 2.53v2.926zm-3.696-4.598c-.47 0-.85.169-1.144.506-.293.337-.44.77-.44 1.298v1.166c0 .059.03.088.088.088h3.014c.059 0 .088-.03.088-.088v-1.166c0-.528-.147-.96-.44-1.298-.293-.337-.682-.506-1.166-.506zm9.196 9.724c-1.144 0-2.053-.315-2.728-.946-.66-.63-.99-1.474-.99-2.53v-4.576c0-1.041.337-1.885 1.012-2.53.675-.645 1.577-.968 2.706-.968 1.144 0 2.046.323 2.706.968.675.645 1.012 1.489 1.012 2.53V21.7c0 1.056-.337 1.9-1.012 2.53-.66.63-1.562.946-2.706.946zm0-1.848c.47 0 .85-.161 1.144-.484.308-.337.462-.77.462-1.298v-4.29c0-.528-.154-.96-.462-1.298-.293-.337-.675-.506-1.144-.506-.47 0-.858.169-1.166.506-.293.337-.44.77-.44 1.298v4.29c0 .528.147.96.44 1.298.308.323.697.484 1.166.484zm10.248-9.702c.968 0 1.716.315 2.244.946.543.63.814 1.474.814 2.53v4.576c0 1.085-.271 1.936-.814 2.552-.542.616-1.29.924-2.244.924a3.16 3.16 0 0 1-1.144-.22 2.7 2.7 0 0 1-.968-.726c-.03-.03-.058-.037-.088-.022a.094.094 0 0 0-.022.066v4.73c0 .147-.073.22-.22.22h-1.672c-.147 0-.22-.073-.22-.22v-14.96c0-.147.074-.22.22-.22h1.672c.147 0 .22.073.22.22v.506c0 .03.015.051.044.066.03 0 .059-.022.088-.066.279-.308.602-.535.968-.682.367-.147.74-.22 1.122-.22zm.946 3.608c0-.528-.146-.953-.44-1.276-.293-.337-.674-.506-1.144-.506-.47 0-.85.169-1.144.506-.278.323-.418.748-.418 1.276v4.312c0 .528.14.96.418 1.298.293.337.675.506 1.144.506.47 0 .85-.169 1.144-.506.294-.337.44-.77.44-1.298v-4.312zM96.784 25c-.147 0-.22-.073-.22-.22V9.82c0-.147.073-.22.22-.22h1.672c.146 0 .22.073.22.22v14.96c0 .147-.074.22-.22.22h-1.672zm11.273-4.95c0 .147-.074.22-.22.22h-4.972c-.059 0-.088.03-.088.088v1.188c0 .528.146.96.44 1.298.293.337.674.506 1.144.506.41 0 .755-.125 1.034-.374.278-.25.454-.572.528-.968.044-.117.124-.176.242-.176l1.628.088c.073 0 .124.022.154.066.044.044.058.095.044.154-.103.953-.47 1.701-1.1 2.244-.616.528-1.46.792-2.53.792-1.13 0-2.032-.315-2.706-.946-.66-.63-.99-1.474-.99-2.53v-4.576c0-1.041.33-1.885.99-2.53.674-.645 1.576-.968 2.706-.968 1.144 0 2.046.323 2.706.968.66.645.99 1.489.99 2.53v2.926zm-3.696-4.598c-.47 0-.851.169-1.144.506-.294.337-.44.77-.44 1.298v1.166c0 .059.029.088.088.088h3.014c.058 0 .088-.03.088-.088v-1.166c0-.528-.147-.96-.44-1.298-.294-.337-.682-.506-1.166-.506zm17.758 1.782c.146 0 .22.073.22.22v1.188c0 .147-.074.22-.22.22h-3.08c-.059 0-.088.03-.088.088v3.08c0 .147-.074.22-.22.22h-1.188c-.147 0-.22-.073-.22-.22v-3.08c0-.059-.03-.088-.088-.088h-3.08c-.147 0-.22-.073-.22-.22v-1.188c0-.147.073-.22.22-.22h3.08c.058 0 .088-.03.088-.088v-3.08c0-.147.073-.22.22-.22h1.188c.146 0 .22.073.22.22v3.08c0 .059.029.088.088.088h3.08zM152.5 5.882a.927.927 0 0 0-.572-.506 1.937 1.937 0 0 0-.572-.066c-.726 0-1.848.154-3.366.462-1.518.308-3.674.792-6.446 1.43-3.63.836-6.556 1.474-8.756 1.914-2.2.44-3.96.638-5.258.638-1.012 0-1.606-.154-1.826-.484 0-.572-.044-1.012-.088-1.298-.066-.286-.154-.44-.242-.44-.11 0-.22.154-.33.462-.132.308-.22.682-.308 1.144-.088.484-.11.946-.11 1.386 0 .572.066 1.056.198 1.474.132.418.33.704.638.858.264.154.704.22 1.276.22.968 0 2.288-.198 3.96-.616 1.672-.396 3.74-.968 6.16-1.716-.88 1.32-1.848 2.948-2.86 4.906a56.943 56.943 0 0 0-2.596 5.654c-.704 1.804-1.056 3.168-1.056 4.048 0 .44.088.792.264 1.078.176.286.374.418.55.418.154 0 .22-.154.22-.462-.088-.924.528-2.618 1.892-5.082a74.623 74.623 0 0 1 4.488-7.128c1.628-2.288 2.618-3.454 3.014-3.52.22-.044.33-.132.33-.308 0-.198-.154-.462-.462-.77 2.772-.858 5.038-1.518 6.776-1.98 1.738-.462 3.058-.704 3.982-.704.528 0 .88.11 1.056.286.044.088.11.066.154-.022s.088-.242.088-.44c0-.286-.066-.572-.198-.836z"/><path fill="#fff" d="M150.137 16.662c-.132-.132-.22-.176-.308-.11l-.704.616a62.38 62.38 0 0 1-5.148 4.18c-1.672 1.21-3.168 1.87-4.51 2.002a2.243 2.243 0 0 1-.11-.726c0-.088 0-.22.044-.44h.264c.308-.022 1.012-.44 2.134-1.276a23.96 23.96 0 0 0 3.036-2.728c.924-.968 1.386-1.782 1.386-2.42 0-.11-.022-.198-.022-.242-.066-.22-.154-.44-.242-.66-.22-.594-.572-.902-1.034-.902-.924 0-1.936.462-3.014 1.386-1.1.924-2.002 2.024-2.75 3.322-.748 1.298-1.122 2.464-1.122 3.498 0 .44.066.836.22 1.166.11.264.22.462.352.616.198.352.484.638.836.902s.726.396 1.1.396c.748 0 1.87-.506 3.322-1.54a33.546 33.546 0 0 0 4.136-3.432c1.32-1.254 2.046-2.112 2.222-2.552.044-.154.088-.308.088-.484a.98.98 0 0 0-.176-.572zm-7.722 1.056c.968-.88 1.826-1.518 2.618-1.936-.374.704-1.034 1.474-1.958 2.354a19.736 19.736 0 0 1-2.926 2.266c.55-.924 1.298-1.804 2.266-2.684z"/><path fill="#fff" d="M159.334 16.684c-.132-.132-.22-.176-.308-.11-.088.044-.33.242-.682.594a60.556 60.556 0 0 1-5.148 4.136c-1.716 1.232-3.234 1.914-4.576 2.046a1.92 1.92 0 0 1-.11-.682c0-.836.352-1.738 1.078-2.75a14.67 14.67 0 0 1 2.53-2.706c.968-.792 1.76-1.342 2.42-1.606-.396.66-.902 1.298-1.562 1.958-.66.66-1.188.99-1.606.99-.132 0-.176.044-.176.088 0 .132.132.264.396.418.264.154.572.22.902.22.176 0 .33 0 .44-.044.484-.11 1.012-.396 1.54-.858.528-.44.88-.968 1.078-1.54.044-.132.066-.264.066-.44 0-.22-.044-.462-.132-.704-.088-.22-.176-.418-.286-.55a2.548 2.548 0 0 0-.396-.814.858.858 0 0 0-.726-.374c-.924 0-1.936.462-3.014 1.386-1.1.924-2.002 2.024-2.75 3.322-.748 1.298-1.122 2.464-1.122 3.498 0 .44.066.836.22 1.166.154.352.308.616.484.814.198.264.44.506.726.726.286.22.594.33.902.374.66.088 1.716-.374 3.212-1.386 1.496-1.012 2.926-2.178 4.334-3.498 1.408-1.298 2.178-2.178 2.354-2.618.044-.154.088-.308.088-.484a.98.98 0 0 0-.176-.572z"/><path fill="#fff" d="M170.968 17.234c-.132-.22-.264-.264-.352-.176-.088.066-.77.682-2.068 1.87-1.298 1.188-2.64 2.2-4.048 2.992.088-.462.198-.968.352-1.54.154-.55.264-.924.308-1.1a59 59 0 0 0 .396-1.54c.088-.352.11-.616.088-.748-.088-.264-.264-.55-.528-.836a2.77 2.77 0 0 0-.792-.616.883.883 0 0 0-.33-.066h-.088c-.528.088-1.254.572-2.178 1.452a34.305 34.305 0 0 0-2.882 3.124c.704-1.43 1.848-3.432 3.432-6.028.88-1.452 1.518-2.552 1.914-3.3.396-.726.616-1.232.616-1.496s-.11-.528-.308-.814a3.072 3.072 0 0 0-.682-.726c-.264-.176-.484-.286-.66-.286-.22 0-.286.154-.242.44.044.352-.22 1.056-.792 2.09-.572 1.034-1.518 2.596-2.794 4.708-1.386 2.266-2.42 4.026-3.124 5.302-.704 1.276-1.034 2.156-.99 2.618.044.528.198 1.012.506 1.452.308.462.616.814.968 1.056.352.242.55.286.638.154l.022-.044c.374-.858 1.188-2.112 2.42-3.784 1.232-1.672 2.398-3.014 3.454-4.048-.176.77-.308 1.606-.418 2.486-.11.88-.154 1.584-.154 2.112s.11.968.352 1.364c.242.396.506.66.814.836.22.176.44.242.704.22.352-.044 1.034-.506 2.046-1.386a40.312 40.312 0 0 0 2.992-2.86c.968-1.012 1.496-1.672 1.584-1.958 0-.044.022-.132.022-.242a1.29 1.29 0 0 0-.198-.682zm-1.358 7.502c.176.264.374.374.638.374s.528-.088.836-.308c.286-.22.484-.528.616-.924.022-.088.044-.154.044-.242 0-.286-.132-.572-.396-.836s-.55-.396-.814-.396c-.286 0-.572.176-.836.506-.286.352-.418.704-.396 1.056.022.264.132.506.308.77z"/><path fill="#4FE2C1" d="M169.193 32.399c-9.37-3.508-27.349-1.539-36.901.886.747-.556 1.243-1.019 1.162-1.16-.563-1.095-6.523 1.453-7.221 3.104-.18.399-.133.756.007 1.036.138.717.574 1.696.875 1.523 5.726-3.162 36.3-8.365 43.469-2.747.386.295.646-1.899-1.391-2.642z"/><path fill="#B7BAC9" fill-rule="evenodd" d="M184 36V0h1v36h-1z" clip-rule="evenodd"/><path fill="#B7BAC9" d="M196.627 8a.164.164 0 0 1-.099-.033.162.162 0 0 1-.033-.1V.433c0-.037.011-.066.033-.088a.136.136 0 0 1 .099-.044h1.386c.074 0 .121.037.143.11l1.419 4.114c.008.022.019.033.033.033.022-.007.033-.022.033-.044V.432c0-.037.011-.066.033-.088a.136.136 0 0 1 .099-.044h1.265c.037 0 .066.015.088.044.03.022.044.051.044.088v7.436c0 .037-.014.07-.044.099a.118.118 0 0 1-.088.033h-1.397c-.073 0-.121-.037-.143-.11l-1.419-4.125c-.007-.022-.022-.033-.044-.033-.014 0-.022.01-.022.033l.011 4.103c0 .037-.014.07-.044.099a.118.118 0 0 1-.088.033h-1.265zm9.941 0c-.088 0-.136-.04-.143-.121l-.176-1.056c0-.037-.022-.055-.066-.055h-1.375c-.044 0-.066.015-.066.044l-.198 1.067c-.008.08-.055.12-.143.12h-1.287c-.096 0-.132-.047-.11-.142L204.621.42c.014-.08.062-.121.143-.121h1.485c.08 0 .128.04.143.12l1.606 7.437.011.044c0 .066-.041.099-.121.099h-1.32zm-1.584-2.486c-.008.037.011.055.055.055h.946c.029 0 .044-.018.044-.055l-.462-2.838c-.008-.022-.019-.033-.033-.033-.015 0-.026.01-.033.033l-.517 2.838zM213.458.3c.037 0 .066.015.088.044.03.022.044.051.044.088v1.067c0 .037-.014.07-.044.099a.118.118 0 0 1-.088.033h-1.375c-.036 0-.055.018-.055.055v6.182c0 .037-.014.07-.044.099a.118.118 0 0 1-.088.033h-1.287a.164.164 0 0 1-.099-.033.162.162 0 0 1-.033-.1v-6.18c0-.037-.018-.055-.055-.055h-1.32a.164.164 0 0 1-.099-.033.162.162 0 0 1-.033-.1V.433c0-.037.011-.066.033-.088a.136.136 0 0 1 .099-.044h4.356zm2.11 7.7a.16.16 0 0 1-.099-.033.162.162 0 0 1-.033-.1V.433c0-.037.011-.066.033-.088a.133.133 0 0 1 .099-.044h1.287c.036 0 .066.015.088.044a.105.105 0 0 1 .044.088v7.436c0 .037-.015.07-.044.099a.12.12 0 0 1-.088.033h-1.287zm5.615.088c-.675 0-1.214-.198-1.617-.594-.403-.396-.605-.924-.605-1.584V2.39c0-.66.202-1.188.605-1.584.403-.396.942-.594 1.617-.594s1.214.198 1.617.594c.411.396.616.924.616 1.584v3.52c0 .66-.205 1.188-.616 1.584-.403.396-.942.594-1.617.594zm0-1.331c.205 0 .37-.07.495-.21.125-.146.187-.336.187-.571V2.324c0-.235-.062-.422-.187-.561a.617.617 0 0 0-.495-.22.617.617 0 0 0-.495.22c-.117.14-.176.326-.176.56v3.653c0 .235.059.425.176.572a.63.63 0 0 0 .495.209zM225.513 8a.16.16 0 0 1-.099-.033.162.162 0 0 1-.033-.1V.433c0-.037.011-.066.033-.088a.133.133 0 0 1 .099-.044h1.386c.073 0 .121.037.143.11l1.419 4.114c.007.022.018.033.033.033.022-.007.033-.022.033-.044V.432c0-.037.011-.066.033-.088a.133.133 0 0 1 .099-.044h1.265c.037 0 .066.015.088.044a.105.105 0 0 1 .044.088v7.436c0 .037-.015.07-.044.099a.118.118 0 0 1-.088.033h-1.397c-.073 0-.121-.037-.143-.11l-1.419-4.125c-.007-.022-.022-.033-.044-.033-.015 0-.022.01-.022.033l.011 4.103c0 .037-.015.07-.044.099a.118.118 0 0 1-.088.033h-1.265zm9.941 0c-.088 0-.136-.04-.143-.121l-.176-1.056c0-.037-.022-.055-.066-.055h-1.375c-.044 0-.066.015-.066.044l-.198 1.067c-.008.08-.055.12-.143.12H232c-.096 0-.132-.047-.11-.142L233.507.42c.014-.08.062-.121.143-.121h1.485c.08 0 .128.04.143.12l1.606 7.437.011.044c0 .066-.041.099-.121.099h-1.32zm-1.584-2.486c-.008.037.011.055.055.055h.946c.029 0 .044-.018.044-.055l-.462-2.838c-.008-.022-.019-.033-.033-.033-.015 0-.026.01-.033.033l-.517 2.838zM238.853 8a.16.16 0 0 1-.099-.033.162.162 0 0 1-.033-.1V.433c0-.037.011-.066.033-.088a.133.133 0 0 1 .099-.044h1.287c.036 0 .066.015.088.044a.105.105 0 0 1 .044.088v6.182c0 .037.018.055.055.055h2.31c.036 0 .066.015.088.044a.105.105 0 0 1 .044.088v1.067c0 .037-.015.07-.044.099a.12.12 0 0 1-.088.033h-3.784zm5.783 0a.16.16 0 0 1-.099-.033.162.162 0 0 1-.033-.1V.433c0-.037.011-.066.033-.088a.133.133 0 0 1 .099-.044h1.287c.037 0 .066.015.088.044a.105.105 0 0 1 .044.088v6.182c0 .037.018.055.055.055h2.31c.037 0 .066.015.088.044a.105.105 0 0 1 .044.088v1.067c0 .037-.015.07-.044.099a.118.118 0 0 1-.088.033h-3.784zm6.75-.011a.16.16 0 0 1-.099-.033.162.162 0 0 1-.033-.1v-2.86l-.011-.065-1.54-4.477a.115.115 0 0 1-.011-.055c0-.066.04-.1.121-.1h1.353c.08 0 .132.038.154.11l.682 2.63c.007.022.018.033.033.033.014 0 .025-.011.033-.033l.682-2.63c.022-.072.073-.11.154-.11h1.353c.044 0 .077.016.099.045.022.022.025.059.011.11l-1.551 4.477-.011.066v2.86c0 .037-.015.07-.044.099a.12.12 0 0 1-.088.033h-1.287zM196.616 22a.164.164 0 0 1-.099-.033.162.162 0 0 1-.033-.1v-7.435c0-.037.011-.066.033-.088a.136.136 0 0 1 .099-.044h1.287c.037 0 .066.015.088.044.03.022.044.051.044.088v6.182c0 .037.019.055.055.055h2.31c.037 0 .066.015.088.044.03.022.044.051.044.088v1.067c0 .037-.014.07-.044.099a.118.118 0 0 1-.088.033h-3.784zm7.721.088c-.675 0-1.214-.198-1.617-.594-.403-.396-.605-.924-.605-1.584v-3.52c0-.66.202-1.188.605-1.584.403-.396.942-.594 1.617-.594s1.214.198 1.617.594c.411.396.616.924.616 1.584v3.52c0 .66-.205 1.188-.616 1.584-.403.396-.942.594-1.617.594zm0-1.331c.205 0 .37-.07.495-.21.125-.146.187-.336.187-.571v-3.652c0-.235-.062-.422-.187-.561a.617.617 0 0 0-.495-.22.617.617 0 0 0-.495.22c-.117.14-.176.326-.176.56v3.653c0 .235.059.425.176.572a.63.63 0 0 0 .495.209zm6.266 1.331c-.66 0-1.191-.194-1.595-.583-.396-.396-.594-.924-.594-1.584v-3.564c0-.653.198-1.173.594-1.562.404-.389.935-.583 1.595-.583.668 0 1.199.194 1.595.583.404.389.605.91.605 1.562v.12c0 .038-.014.07-.044.1a.118.118 0 0 1-.088.033l-1.287.055c-.088 0-.132-.04-.132-.121v-.286a.745.745 0 0 0-.176-.517.6.6 0 0 0-.473-.198.59.59 0 0 0-.462.198.75.75 0 0 0-.176.517v3.795a.75.75 0 0 0 .176.517.606.606 0 0 0 .462.187.617.617 0 0 0 .473-.187.745.745 0 0 0 .176-.517v-.297c0-.037.011-.066.033-.088a.136.136 0 0 1 .099-.044l1.287.055c.088 0 .132.04.132.12v.122c0 .66-.201 1.188-.605 1.584-.403.389-.935.583-1.595.583zm7.349-.088c-.088 0-.135-.04-.143-.121l-.176-1.056c0-.037-.022-.055-.066-.055h-1.375c-.044 0-.066.015-.066.044l-.198 1.067c-.007.08-.055.12-.143.12h-1.287c-.095 0-.132-.047-.11-.142l1.617-7.436c.015-.08.063-.121.143-.121h1.485c.081 0 .129.04.143.12l1.606 7.437.011.044c0 .066-.04.099-.121.099h-1.32zm-1.584-2.486c-.007.037.011.055.055.055h.946c.03 0 .044-.018.044-.055l-.462-2.838c-.007-.022-.018-.033-.033-.033-.014 0-.025.01-.033.033l-.517 2.838zM221.351 22a.164.164 0 0 1-.099-.033.162.162 0 0 1-.033-.1v-7.435c0-.037.011-.066.033-.088a.136.136 0 0 1 .099-.044h1.287c.037 0 .066.015.088.044.03.022.044.051.044.088v6.182c0 .037.019.055.055.055h2.31c.037 0 .066.015.088.044.03.022.044.051.044.088v1.067c0 .037-.014.07-.044.099a.118.118 0 0 1-.088.033h-3.784zm5.784 0a.16.16 0 0 1-.099-.033.162.162 0 0 1-.033-.1v-7.435c0-.037.011-.066.033-.088a.133.133 0 0 1 .099-.044h1.287c.037 0 .066.015.088.044a.105.105 0 0 1 .044.088v6.182c0 .037.018.055.055.055h2.31c.037 0 .066.015.088.044a.105.105 0 0 1 .044.088v1.067c0 .037-.015.07-.044.099a.118.118 0 0 1-.088.033h-3.784zm6.75-.011a.16.16 0 0 1-.099-.033.162.162 0 0 1-.033-.1v-2.86l-.011-.065-1.54-4.477a.115.115 0 0 1-.011-.055c0-.066.04-.1.121-.1h1.353c.08 0 .132.038.154.11l.682 2.63c.007.022.018.033.033.033.014 0 .025-.011.033-.033l.682-2.63c.022-.072.073-.11.154-.11h1.353c.044 0 .077.016.099.045.022.022.025.059.011.11l-1.551 4.477-.011.066v2.86c0 .037-.015.07-.044.099a.12.12 0 0 1-.088.033h-1.287zM199.52 36c-.08 0-.132-.037-.154-.11l-.847-3.036c-.014-.03-.033-.044-.055-.044h-.374c-.036 0-.055.018-.055.055v3.003c0 .037-.014.07-.044.099a.118.118 0 0 1-.088.033h-1.287a.164.164 0 0 1-.099-.033.162.162 0 0 1-.033-.1v-7.446c0-.037.011-.066.033-.088a.136.136 0 0 1 .099-.044h2.222a1.931 1.931 0 0 1 1.804 1.122c.176.352.264.752.264 1.199 0 .433-.084.814-.253 1.144-.161.33-.388.59-.682.78a.09.09 0 0 0-.033.034c-.007.007-.007.018 0 .033l1.012 3.245.011.044c0 .073-.04.11-.121.11h-1.32zm-1.43-6.37c-.036 0-.055.02-.055.056v1.87c0 .037.019.055.055.055h.495a.666.666 0 0 0 .55-.264c.147-.176.22-.414.22-.715 0-.315-.073-.561-.22-.737a.666.666 0 0 0-.55-.264h-.495zm8.709-.131c0 .037-.015.07-.044.099a.118.118 0 0 1-.088.033h-2.299c-.037 0-.055.018-.055.055v1.738c0 .037.018.055.055.055h1.32c.037 0 .066.015.088.044a.105.105 0 0 1 .044.088v1.067c0 .037-.015.07-.044.099a.118.118 0 0 1-.088.033h-1.32c-.037 0-.055.018-.055.055v1.749c0 .037.018.055.055.055h2.299c.037 0 .066.015.088.044a.105.105 0 0 1 .044.088v1.067c0 .037-.015.07-.044.099a.118.118 0 0 1-.088.033h-3.773a.16.16 0 0 1-.099-.033.162.162 0 0 1-.033-.1v-7.435c0-.037.011-.066.033-.088a.133.133 0 0 1 .099-.044h3.773c.037 0 .066.015.088.044a.105.105 0 0 1 .044.088v1.067zM208.795 36a.164.164 0 0 1-.099-.033.162.162 0 0 1-.033-.1v-7.435c0-.037.011-.066.033-.088a.136.136 0 0 1 .099-.044h1.265c.074 0 .125.033.154.099l.957 2.057c.022.044.044.044.066 0l.957-2.057c.03-.066.081-.1.154-.1h1.276c.037 0 .066.016.088.045.03.022.044.051.044.088v7.436c0 .037-.014.07-.044.099a.118.118 0 0 1-.088.033h-1.287a.164.164 0 0 1-.099-.033.162.162 0 0 1-.033-.1v-4.751c0-.03-.011-.044-.033-.044-.014-.007-.025.004-.033.033l-.858 1.705c-.029.066-.055.099-.077.099-.014 0-.04-.033-.077-.1l-.847-1.726c-.014-.022-.029-.033-.044-.033-.014 0-.022.015-.022.044v4.774c0 .037-.014.07-.044.099a.118.118 0 0 1-.088.033h-1.287zm9.107.088c-.674 0-1.213-.198-1.617-.594-.403-.396-.605-.924-.605-1.584v-3.52c0-.66.202-1.188.605-1.584.404-.396.943-.594 1.617-.594.675 0 1.214.198 1.617.594.411.396.616.924.616 1.584v3.52c0 .66-.205 1.188-.616 1.584-.403.396-.942.594-1.617.594zm0-1.331c.206 0 .371-.07.495-.21.125-.146.187-.336.187-.571v-3.652c0-.235-.062-.422-.187-.561a.615.615 0 0 0-.495-.22.617.617 0 0 0-.495.22c-.117.14-.176.326-.176.56v3.653c0 .235.059.425.176.572a.63.63 0 0 0 .495.209zm8.37-6.457c.036 0 .066.015.088.044a.105.105 0 0 1 .044.088v1.067c0 .037-.015.07-.044.099a.12.12 0 0 1-.088.033h-1.375c-.037 0-.055.018-.055.055v6.182c0 .037-.015.07-.044.099a.12.12 0 0 1-.088.033h-1.287a.16.16 0 0 1-.099-.033.162.162 0 0 1-.033-.1v-6.181c0-.037-.019-.055-.055-.055h-1.32a.16.16 0 0 1-.099-.033.162.162 0 0 1-.033-.1v-1.066c0-.037.011-.066.033-.088a.133.133 0 0 1 .099-.044h4.356zm6.014 1.199c0 .037-.015.07-.044.099a.118.118 0 0 1-.088.033h-2.299c-.037 0-.055.018-.055.055v1.738c0 .037.018.055.055.055h1.32c.037 0 .066.015.088.044a.105.105 0 0 1 .044.088v1.067c0 .037-.015.07-.044.099a.118.118 0 0 1-.088.033h-1.32c-.037 0-.055.018-.055.055v1.749c0 .037.018.055.055.055h2.299c.037 0 .066.015.088.044a.105.105 0 0 1 .044.088v1.067c0 .037-.015.07-.044.099a.118.118 0 0 1-.088.033h-3.773a.16.16 0 0 1-.099-.033.162.162 0 0 1-.033-.1v-7.435c0-.037.011-.066.033-.088a.133.133 0 0 1 .099-.044h3.773c.037 0 .066.015.088.044a.105.105 0 0 1 .044.088v1.067zM234.304 36a.164.164 0 0 1-.099-.033.162.162 0 0 1-.033-.1v-7.435c0-.037.011-.066.033-.088a.136.136 0 0 1 .099-.044h1.287c.037 0 .066.015.088.044.03.022.044.051.044.088v6.182c0 .037.019.055.055.055h2.31c.037 0 .066.015.088.044.03.022.044.051.044.088v1.067c0 .037-.014.07-.044.099a.118.118 0 0 1-.088.033h-3.784zm6.75-.011a.16.16 0 0 1-.099-.033.162.162 0 0 1-.033-.1v-2.86l-.011-.065-1.54-4.477a.128.128 0 0 1-.011-.055c0-.066.04-.1.121-.1h1.353c.081 0 .132.038.154.11l.682 2.63c.007.022.018.033.033.033.015 0 .026-.011.033-.033l.682-2.63c.022-.072.073-.11.154-.11h1.353c.044 0 .077.016.099.045.022.022.026.059.011.11l-1.551 4.477-.011.066v2.86c0 .037-.015.07-.044.099a.118.118 0 0 1-.088.033h-1.287z"/></svg>